<svg width="1024" height="280" viewBox="0 0 1024 280" fill="none" xmlns="http://www.w3.org/2000/svg">
<g clip-path="url(#clip0_4038_51072)">
<g opacity="0.7">
<path d="M195.608 214.805C192.773 99.5323 55.0605 58.9034 -13.4417 52.998L-7.53625 283.307H195.608V214.805Z" fill="#DAF0FF"/>
<path d="M153.129 159.499C64.744 107.513 -32.828 188.078 -42 274.5L100.713 386.214L150.772 337.332C173.682 307.092 230.375 204.932 153.129 159.499Z" fill="#95D5FF"/>
<path d="M53.706 106.865C22.5392 81.7 -21.3716 122.167 -33.2954 148.361L14.42 218.378L50.3919 193.864C67.905 178.113 93.0858 138.661 53.706 106.865Z" fill="#C0E6FF"/>
</g>
<g opacity="0.7">
<path d="M831.018 214.569C833.853 99.296 971.566 58.6671 1040.07 52.7617L1034.16 283.071H831.018V214.569Z" fill="#DAF0FF"/>
<path d="M862.739 266.594C846.392 196.851 948.144 165.383 1011.96 172.89L1036.81 266.593L990.185 293.515C963.23 304.573 877.026 327.547 862.739 266.594Z" fill="#95D5FF"/>
<path d="M973.852 94.4265C1005.02 69.2617 1048.93 109.729 1060.85 135.923L1013.14 205.94L977.166 181.426C959.653 165.674 934.472 126.223 973.852 94.4265Z" fill="#C0E6FF"/>
<path d="M965.065 269.425L966.211 258.536V246.501L966.784 242.489L967.357 230.453L968.503 206.956H991.428L992.574 230.453L993.147 242.489L993.72 246.501L994.293 258.536L994.866 269.425H965.065Z" fill="#36D4D8"/>
<path d="M966.21 258.536V246.501L966.783 242.489H993.146L993.719 246.501L994.292 258.536H966.21Z" fill="#1AB3B7"/>
<path d="M979.965 256.244C983.131 256.244 985.696 253.678 985.696 250.513C985.696 247.348 983.131 244.782 979.965 244.782C976.8 244.782 974.234 247.348 974.234 250.513C974.234 253.678 976.8 256.244 979.965 256.244Z" fill="white"/>
<path d="M965.065 248.216L966.211 237.327V225.292L966.784 221.28L967.357 209.245L968.503 186.321H991.428L992.574 209.245L993.147 221.28L993.72 225.292L994.293 237.327L994.866 248.216H965.065Z" fill="#36D4D8"/>
<path d="M966.21 237.329V225.294L966.783 221.282H993.146L993.719 225.294L994.292 237.329H966.21Z" fill="#1AB3B7"/>
<path d="M979.965 234.462C983.131 234.462 985.696 231.896 985.696 228.731C985.696 225.566 983.131 223 979.965 223C976.8 223 974.234 225.566 974.234 228.731C974.234 231.896 976.8 234.462 979.965 234.462Z" fill="white"/>
<path d="M965.065 229.307L966.211 218.418V206.383L966.784 201.798L967.357 189.763L968.503 166.839H991.428L992.574 189.763L993.147 201.798L993.72 206.383L994.293 218.418L994.866 229.307H965.065Z" fill="#36D4D8"/>
<path d="M966.21 218.418V206.383L966.783 201.798H993.146L993.719 206.383L994.292 218.418H966.21Z" fill="#1AB3B7"/>
<path d="M979.965 215.552C983.131 215.552 985.696 212.986 985.696 209.82C985.696 206.655 983.131 204.089 979.965 204.089C976.8 204.089 974.234 206.655 974.234 209.82C974.234 212.986 976.8 215.552 979.965 215.552Z" fill="white"/>
<path d="M965.066 208.102L966.212 197.213V185.178L966.785 180.593L967.358 168.557L968.504 145.633H991.429L992.575 168.557L993.148 180.593L993.721 185.178L994.294 197.213L994.867 208.102H965.066Z" fill="#36D4D8"/>
<path d="M966.21 197.213V185.177L966.783 180.592H993.147L993.72 185.177L994.293 197.213H966.21Z" fill="#1AB3B7"/>
<path d="M979.966 193.773C983.131 193.773 985.697 191.207 985.697 188.042C985.697 184.876 983.131 182.311 979.966 182.311C976.801 182.311 974.235 184.876 974.235 188.042C974.235 191.207 976.801 193.773 979.966 193.773Z" fill="white"/>
<path d="M927.398 182.964L924.001 181.446L921.199 187.563L916.56 197.656L916.108 198.643L915.104 200.834C914.654 201.793 914.049 202.944 913.3 204.289C913.059 204.711 912.8 205.149 912.525 205.597C912.373 205.85 912.216 206.118 912.056 206.39C910.24 209.395 909.132 211.255 908.727 211.958C908.065 213.148 907.474 214.22 906.961 215.174C905.918 217.069 905.166 218.504 904.698 219.479C904.029 220.835 903.579 222.407 903.35 224.197C903.119 225.892 903.352 227.632 904.056 229.428C905.893 228.78 907.376 227.815 908.52 226.534C909.717 225.183 910.615 223.813 911.215 222.424C911.635 221.428 912.227 219.921 912.994 217.901C913.366 216.883 913.785 215.736 914.261 214.46C914.54 213.697 915.23 211.65 916.328 208.321C916.42 208.018 916.518 207.729 916.622 207.449C916.784 206.944 916.944 206.467 917.106 206.009C917.609 204.553 918.087 203.344 918.528 202.382L919.529 200.195L919.981 199.208L924.606 189.109L927.398 182.964Z" fill="#414682"/>
<path d="M911.762 214.293C912.017 212.575 911.841 211.578 911.225 211.3C910.623 211.028 909.755 211.553 908.627 212.877C908.017 213.583 907.428 214.409 906.859 215.368C906.372 216.176 905.902 217.075 905.447 218.067C904.462 220.217 903.84 222.151 903.585 223.87C903.325 225.575 903.493 226.562 904.1 226.837C904.712 227.113 905.586 226.597 906.719 225.286C907.847 223.961 908.902 222.223 909.887 220.073C910.342 219.081 910.722 218.136 911.023 217.249C911.376 216.194 911.617 215.211 911.762 214.293Z" fill="#E6E7E8"/>
<path d="M937.811 176.201C938.005 175.827 938.198 175.434 938.386 175.024C939.386 172.892 940.17 170.713 940.739 168.487C940.88 167.948 941.003 167.425 941.117 166.909C941.545 164.758 941.672 163.114 941.487 161.971C941.338 161.465 941.081 161.349 940.711 161.621L933.3 177.404L933.223 177.492C933.008 177.834 932.734 177.932 932.399 177.781C932.064 177.63 931.955 177.358 932.078 176.974C932.582 175.746 933.676 173.294 935.363 169.613C936.481 167.201 937.339 165.139 937.936 163.437C938.546 161.725 938.788 160.63 938.664 160.147C938.605 159.892 938.519 159.747 938.394 159.715C938.247 159.627 938.049 159.677 937.79 159.857C937.344 160.154 936.72 160.987 935.928 162.373C935.149 163.739 934.189 165.644 933.038 168.077C930.995 172.429 929.775 174.987 929.378 175.755C929.315 175.867 929.231 175.947 929.124 176.003C928.956 176.113 928.766 176.122 928.538 176.03C928.313 175.917 928.187 175.76 928.159 175.567C928.131 175.449 928.141 175.337 928.194 175.221C928.496 174.41 929.633 171.814 931.607 167.431C932.694 164.958 933.499 162.983 934.027 161.514C934.566 160.003 934.803 158.988 934.729 158.475C934.677 158.154 934.579 157.969 934.424 157.923C934.297 157.843 934.139 157.87 933.939 157.996C933.486 158.206 932.802 159.109 931.897 160.711C930.981 162.274 929.985 164.268 928.896 166.693C927.218 170.378 926.084 172.814 925.493 174.001C925.259 174.335 924.979 174.43 924.655 174.284C924.31 174.129 924.201 173.857 924.333 173.477L924.35 173.363L931.47 157.448C931.428 156.991 931.17 156.874 930.708 157.104C929.706 157.703 928.535 158.876 927.2 160.625C926.858 161.038 926.541 161.473 926.236 161.938C924.906 163.804 923.762 165.826 922.8 167.986C922.611 168.398 922.443 168.801 922.298 169.197C921.279 171.724 920.777 173.96 920.789 175.887C920.798 178.488 921.717 180.357 923.546 181.494C923.748 181.632 923.959 181.769 924.174 181.9L927.576 183.419C929.706 183.978 931.757 183.413 933.73 181.732C935.187 180.466 936.546 178.625 937.811 176.201Z" fill="#414682"/>
<path d="M901.203 207.174C900.023 206.102 899.173 205.725 898.645 206.046C898.129 206.36 898.084 207.282 898.516 208.809C898.741 209.629 899.069 210.495 899.509 211.414C899.876 212.194 900.32 213.008 900.844 213.858C901.978 215.7 903.134 217.157 904.314 218.228C905.481 219.297 906.321 219.675 906.841 219.359C907.365 219.04 907.42 218.117 907.001 216.594C906.57 215.067 905.785 213.383 904.651 211.542C904.127 210.692 903.601 209.922 903.079 209.242C902.455 208.437 901.831 207.749 901.203 207.174Z" fill="#E6E7E8"/>
<path d="M911.369 232.973C912.255 231.971 912.513 230.674 912.152 229.086C911.552 226.478 905.22 206.35 893.162 168.687L889.842 169.625C899.406 208.005 904.619 228.435 905.467 230.915C906.003 232.465 906.905 233.444 908.17 233.833C908.817 234.041 909.402 234.087 909.92 233.977C910.448 233.815 910.928 233.482 911.369 232.973Z" fill="#414682"/>
<path d="M883.321 140.399C881.282 140.932 879.324 141.829 877.427 143.087C873.654 145.598 872.134 148.659 872.86 152.269C873.667 156.22 875.074 160.027 877.097 163.683C879.336 167.762 881.527 170.027 883.653 170.488C884.885 170.775 886.58 170.711 888.745 170.299C889.817 170.091 890.776 169.861 891.608 169.592L894.423 168.692C896.495 167.921 897.966 167.111 898.853 166.243C900.443 164.708 901.131 161.616 900.914 156.966C900.69 152.792 899.883 148.826 898.476 145.057C897.214 141.606 894.309 139.795 889.761 139.62C888.338 139.572 886.843 139.684 885.259 139.946L883.321 140.399ZM888.055 145.933C888.359 146.292 888.719 146.991 889.142 148.032C889.853 149.756 890.5 151.657 891.085 153.732C891.732 155.838 892.188 157.778 892.461 159.566C892.637 160.678 892.701 161.457 892.652 161.895C892.588 162.269 892.428 162.5 892.18 162.579C891.925 162.659 891.678 162.548 891.42 162.254C891.116 161.88 890.755 161.173 890.333 160.14C889.621 158.416 888.975 156.515 888.39 154.439C887.823 152.428 887.367 150.489 887.014 148.606C886.838 147.494 886.782 146.715 886.846 146.277C886.895 145.903 887.047 145.672 887.294 145.593C887.55 145.503 887.797 145.616 888.055 145.933ZM882.202 147.578C882.251 147.204 882.403 146.973 882.651 146.894C882.906 146.815 883.153 146.935 883.411 147.245C883.715 147.604 884.076 148.303 884.498 149.343C885.21 151.068 885.856 152.969 886.441 155.044C887.042 157.15 887.498 159.09 887.818 160.878C887.993 161.99 888.057 162.769 888.008 163.207C887.944 163.581 887.784 163.811 887.537 163.891C887.281 163.97 887.032 163.86 886.776 163.566C886.472 163.191 886.112 162.484 885.689 161.452C884.978 159.728 884.331 157.826 883.746 155.751C883.179 153.74 882.723 151.8 882.37 149.917C882.192 148.795 882.138 148.016 882.202 147.578ZM878.723 148.572C879.027 148.931 879.388 149.63 879.811 150.671C880.522 152.395 881.169 154.296 881.754 156.371C882.419 158.518 882.872 160.465 883.13 162.205C883.305 163.317 883.37 164.096 883.321 164.534C883.256 164.908 883.096 165.139 882.849 165.218C882.594 165.297 882.346 165.187 882.089 164.893C881.785 164.519 881.424 163.811 881.001 162.779C880.29 161.055 879.643 159.154 879.058 157.078C878.491 155.067 878.035 153.128 877.682 151.244C877.507 150.133 877.45 149.354 877.514 148.916C877.563 148.541 877.715 148.311 877.963 148.231C878.218 148.134 878.476 148.255 878.723 148.572ZM893.827 146.761C894.539 148.485 895.185 150.386 895.77 152.461C896.353 154.457 896.809 156.397 897.146 158.295C897.322 159.407 897.386 160.186 897.337 160.624C897.273 160.998 897.113 161.229 896.866 161.308C896.61 161.388 896.363 161.278 896.105 160.983C895.801 160.609 895.441 159.902 895.018 158.869C894.307 157.145 893.66 155.244 893.075 153.169C892.508 151.157 892.052 149.218 891.699 147.335C891.523 146.223 891.467 145.444 891.531 145.006C891.58 144.632 891.732 144.401 891.98 144.322C892.235 144.242 892.485 144.363 892.74 144.673C893.036 145.019 893.402 145.718 893.827 146.761Z" fill="#414682"/>
<path d="M906.291 213.804L914.139 173.525L912.404 173.219L904.555 213.497L906.291 213.804Z" fill="#414682"/>
<path d="M900.452 225.429L906.074 226.462L912.665 191.279L907.043 190.246L900.452 225.429Z" fill="#414682"/>
<path d="M911.786 174.908C911.8 174.956 911.829 175.012 911.865 175.064C911.883 175.153 911.919 175.228 911.964 175.298C911.971 175.323 911.989 175.349 912.021 175.382C912.021 175.382 912.03 175.395 912.049 175.422C912.149 175.583 912.3 175.684 912.483 175.717L912.554 175.73C912.67 175.751 912.79 175.75 912.914 175.723C913.021 175.669 913.118 175.606 913.202 175.525C915.577 172.889 917.8 170.245 919.862 167.613L919.855 167.647C920.909 166.31 921.926 164.967 922.909 163.64C925.84 159.646 927.701 155.541 928.484 151.319C929.286 147.054 928.907 143.221 927.355 139.816C925.839 136.491 923.549 134.47 920.486 133.743C920.475 133.741 920.464 133.739 920.453 133.737L920.419 133.731C920.375 133.723 920.337 133.716 920.315 133.712C920.292 133.708 920.27 133.704 920.244 133.699C920.199 133.691 920.162 133.684 920.14 133.68L920.001 133.655C918.078 133.314 916.207 133.58 914.388 134.469C914.375 134.478 914.363 134.476 914.348 134.496C913.025 135.232 911.943 136.017 911.105 136.842C908.363 139.461 906.6 142.902 905.798 147.167C905.002 151.398 905.253 155.851 906.574 160.542C907.016 162.13 907.519 163.786 908.085 165.492C908.819 167.645 909.672 169.859 910.664 172.155L910.63 172.149C911.001 173.053 911.376 173.969 911.786 174.908ZM913.042 172.194C913.023 172.048 912.996 171.924 912.975 171.789C912.889 169.766 912.83 167.782 912.777 165.846C912.728 164.258 912.709 162.702 912.695 161.193C912.584 156.881 912.954 152.429 913.828 147.847C914.702 143.202 915.956 139.652 917.598 137.218C918.384 136.036 919.162 135.327 919.949 135.101C919.963 135.092 919.987 135.085 920.026 135.081C920.719 135.481 921.265 136.456 921.647 137.993L921.654 137.96C922.267 140.811 922.148 144.565 921.274 149.21C920.34 153.785 919.082 158.074 917.478 162.068C916.886 163.489 916.293 164.922 915.672 166.376C914.829 168.291 913.96 170.224 913.042 172.194ZM911.42 167.44C911.284 166.767 911.172 166.092 911.058 165.424C910.767 163.791 910.512 162.215 910.287 160.679C909.607 156.274 909.659 151.791 910.449 147.224C911.312 142.636 912.971 139.233 915.428 136.982L915.434 136.949C915.877 136.564 916.307 136.249 916.754 135.984C916.655 136.12 916.557 136.272 916.456 136.419C914.716 138.982 913.396 142.697 912.477 147.584C911.596 152.265 911.22 156.808 911.325 161.216C911.342 162.725 911.358 164.281 911.407 165.869C911.4 166.396 911.409 166.925 911.42 167.44ZM909.432 165.018L909.426 165.052C908.87 163.371 908.363 161.737 907.936 160.175L907.942 160.142C906.685 155.682 906.432 151.428 907.177 147.404C907.921 143.452 909.562 140.262 912.103 137.834L912.07 137.828C912.652 137.276 913.351 136.737 914.18 136.23C911.666 138.64 909.965 142.224 909.072 146.972L909.066 147.006C908.254 151.712 908.198 156.34 908.897 160.891C909.13 162.44 909.395 164.029 909.699 165.676C909.706 165.762 909.713 165.844 909.724 165.931C909.619 165.627 909.518 165.323 909.432 165.018ZM919.817 162.392L919.811 162.426C919.015 163.787 918.193 165.177 917.328 166.575C917.073 166.972 916.823 167.354 916.578 167.752C916.693 167.472 916.814 167.198 916.949 166.934C917.571 165.468 918.167 164.024 918.761 162.592C920.4 158.515 921.691 154.152 922.637 149.494L922.643 149.46C923.562 144.574 923.692 140.641 923.023 137.636L922.989 137.63C922.953 137.493 922.93 137.369 922.916 137.259C923.195 137.622 923.475 138.043 923.746 138.509L923.719 138.469C925.209 141.442 925.523 145.229 924.669 149.831C923.735 154.368 922.121 158.557 919.817 162.392ZM921.024 163.114C923.401 159.138 925.065 154.804 926.021 150.113L926.027 150.079C926.788 146.035 926.698 142.574 925.744 139.687C925.844 139.91 925.961 140.131 926.069 140.378C927.509 143.535 927.848 147.088 927.116 151.042C926.357 155.075 924.578 158.991 921.777 162.805C920.893 163.996 919.988 165.178 919.044 166.381C919.738 165.294 920.389 164.192 921.024 163.114Z" fill="#414682"/>
<path d="M921.14 268.988C922.465 268.988 923.144 268.06 923.144 266.275V199.556C923.112 197.823 922.432 197.001 921.14 197.001H891.737C890.444 197.001 889.765 197.876 889.732 199.556V266.275C889.732 268.113 890.411 268.988 891.737 268.988H921.14Z" fill="white"/>
<path d="M923.145 207.808V204.802H889.732V207.808H923.145ZM923.145 214.202V211.196H889.732V214.202H923.145Z" fill="#E3FAFF"/>
<path d="M830.992 268.949H1030.02V283.871H830.992V268.949Z" fill="#6370FF"/>
</g>
<path d="M-38.2429 292.368C-28.9838 296.339 14.9502 325.843 26.5729 309.578C51.7852 274.295 40.3176 227.922 40.3176 227.922L10.1454 213.544C4.20916 220.264 6.20693 242.86 5.66947 248.902C4.3433 266.099 4.1974 281.115 4.1974 281.115C-7.35028 279.289 -20.9368 282.432 -35.8079 272.562L-38.2429 292.368Z" fill="#E2AE90"/>
<path d="M210.555 247.026C196.108 220.509 156.31 192.366 147.5 186.999L133 223.5C153.837 236.354 181 254 181 254C173.692 263.882 167.455 286.319 152.382 296.786L166.859 311.885C167.165 311.911 223.727 270.349 210.555 247.026Z" fill="#E2AE90"/>
<path d="M44.4836 183.802L80.775 173.96H104.764L142.286 183.802C153.05 216.095 129.061 253.309 128.753 279.144H93.0772H57.4009C57.0933 253.002 34.0267 217.633 44.4836 183.802Z" fill="#E2AE90"/>
<path d="M145.5 183.999C145.5 183.999 164.123 187.491 183.499 201.638C183.499 201.638 171.197 227.473 138.904 238.852L145.5 183.999Z" fill="#DDFFDE"/>
<path d="M38.6412 183.801C38.6412 183.801 16.9999 183.801 0.499863 213.5C0.499863 213.5 13.4218 227.474 45.715 238.853L38.6412 183.801Z" fill="#DDFFDE"/>
<path d="M38.6411 183.801C38.6411 183.801 51.2508 180.726 60.785 178.573C63.553 190.875 76.7778 197.026 92.4631 197.026C108.148 197.026 121.373 190.875 124.141 178.88C133.675 181.033 145.5 184 145.5 184C145.5 184 153.974 201.332 147.515 233.932C141.979 261.305 140.442 279.45 130.907 279.45H53.0961C43.562 279.45 42.6393 261.305 37.1033 233.932C30.6447 201.024 38.6411 183.801 38.6411 183.801Z" fill="#DDFFDE"/>
<path d="M42.6393 198.871C43.8695 188.107 69.3965 203.484 90.9252 221.63C115.222 203.177 142.902 187.799 143.517 198.256C145.362 230.241 154.589 239.468 154.589 256.999C154.589 274.529 140.134 288.984 122.603 288.984C114.914 288.984 101.69 287.139 88.4648 283.448C78.6231 286.831 68.4738 288.984 61.7076 288.984C43.8695 288.984 29.722 274.837 29.722 256.999C29.722 239.468 39.2562 224.09 42.6393 198.871Z" fill="#DDFFDE"/>
<path d="M52.1726 280.066C38.6403 264.38 42.946 252.078 45.714 234.855C46.9442 226.244 39.8705 183.186 39.8705 183.186C39.8705 183.186 46.3291 179.803 59.2464 178.265L68.473 221.015C68.473 221.015 80.4676 219.785 92.1547 219.785C103.842 219.785 115.836 221.015 115.836 221.015L125.371 178.573C137.673 179.803 144.131 182.879 144.131 182.879C144.131 182.879 136.75 227.781 138.288 236.701C139.826 245.62 143.209 268.071 133.674 275.76C126.908 299.442 161.662 361.875 161.662 361.875C161.662 361.875 131.829 376.33 94.3076 368.949H90.6169C53.0953 376.022 22.955 361.875 22.955 361.875C22.955 361.875 65.705 295.751 52.1726 280.066Z" fill="#42B8BB"/>
<path d="M115.223 236.086L110.917 251.464L92.1561 260.69L73.0878 251.464L68.782 236.086H115.223Z" fill="#2EA1A4"/>
<path d="M92.4633 54.9383C149.361 35.8699 209.642 163.812 116.453 162.275C105.073 161.967 64.4758 162.275 64.4758 162.275C-14.8733 158.584 32.4901 37.7153 92.4633 54.9383Z" fill="#892708"/>
<path d="M132.138 113.373C144.748 109.99 149.976 123.523 142.595 132.134C135.829 140.131 126.295 137.67 126.295 137.67L127.217 108.76L132.138 113.373Z" fill="#C89070"/>
<path d="M53.4041 113.373C40.7945 109.99 35.5661 123.523 42.9473 132.134C49.7135 140.13 59.2476 137.67 59.2476 137.67L58.325 108.76L53.4041 113.373Z" fill="#C89070"/>
<path d="M46.6372 145.051C42.5607 145.051 39.256 141.746 39.256 137.669C39.256 133.593 42.5607 130.288 46.6372 130.288C50.7137 130.288 54.0184 133.593 54.0184 137.669C54.0184 141.746 50.7137 145.051 46.6372 145.051Z" fill="white"/>
<path d="M137.981 145.051C133.904 145.051 130.6 141.746 130.6 137.669C130.6 133.593 133.904 130.288 137.981 130.288C142.058 130.288 145.362 133.593 145.362 137.669C145.362 141.746 142.058 145.051 137.981 145.051Z" fill="white"/>
<path d="M69.3971 185.957L71.55 158.585H92.4637H95.8469H113.377L115.223 185.957H69.3971Z" fill="#E2AE90"/>
<path d="M71.2422 159.815L70.6271 172.117C74.0102 174.577 84.1594 178.268 92.1558 178.268C100.152 178.268 110.301 174.577 114.3 172.117L113.685 159.815H71.2422Z" fill="#C89070"/>
<path d="M51.5588 106.607C51.5588 126.598 49.7135 151.818 64.7837 162.274C70.3197 166.273 81.3916 172.731 92.7711 172.731C104.151 172.731 115.223 166.273 120.451 162.274C134.906 151.202 133.676 127.213 133.676 106.915C133.676 78.6198 114.608 66.3176 92.7711 66.3176C70.9348 66.3176 51.5588 78.3122 51.5588 106.607Z" fill="#E2AE90"/>
<path d="M85.3881 132.441C85.3881 131.519 88.1561 131.826 89.6938 130.289C92.1542 127.213 91.2316 123.215 91.2316 123.215C91.2316 123.215 90.924 127.213 87.8485 129.366C86.0032 130.596 83.8503 130.904 83.8503 131.826C83.2352 137.67 90.0014 139.208 90.0014 139.208C90.0014 139.208 85.0805 136.44 85.3881 132.441Z" fill="#57321D"/>
<path d="M109.071 104.454C109.071 104.454 109.378 101.993 112.146 100.763C118.297 98.6102 125.064 104.761 125.064 104.761C125.064 104.761 114.607 100.148 109.071 104.454Z" fill="#892708"/>
<path d="M76.1621 104.454C76.1621 104.454 75.8545 101.993 73.0866 100.763C66.9355 98.6102 60.1693 104.761 60.1693 104.761C60.1693 104.761 70.6261 100.148 76.1621 104.454Z" fill="#892708"/>
<path d="M120.759 115.527C121.066 115.527 120.759 115.527 120.759 115.527C122.911 117.372 124.757 116.449 124.757 116.449C124.757 116.449 124.757 119.217 121.681 119.217C121.681 121.37 120.451 123.523 117.991 124.753L105.688 117.68C107.841 112.451 116.76 109.991 120.759 115.527Z" fill="#352720"/>
<path d="M78.9302 117.065L66.628 124.138C64.1675 122.908 63.2449 120.755 62.9373 118.602C59.8617 118.602 59.8617 115.835 59.8617 115.835C59.8617 115.835 61.7071 117.065 63.5524 115.219C63.5524 115.219 63.5524 115.219 63.5524 114.912C67.8582 109.991 77.0849 112.451 78.9302 117.065Z" fill="#352720"/>
<path d="M80.4682 147.204C80.4682 147.204 83.2361 157.353 91.8476 157.046C99.8439 156.738 102.304 147.819 102.304 147.819L92.1551 149.664L88.7721 150.279L80.4682 147.204Z" fill="#BA5D40"/>
<path d="M102.304 147.512C102.304 147.512 95.8458 141.669 91.2325 147.512C87.2343 141.976 80.1606 147.204 80.1606 147.204C80.1606 147.204 85.389 151.203 90.9249 151.51C96.4608 151.818 102.304 147.512 102.304 147.512Z" fill="#D27353"/>
<path d="M77.3925 144.745C92.4627 157.662 105.072 145.052 105.072 145.052C105.072 145.052 101.074 151.511 90.9249 151.511C81.6982 151.511 77.3925 144.745 77.3925 144.745Z" fill="#95491E"/>
<path d="M104.151 124.139C104.151 124.139 107.534 127.214 113.07 126.292C117.683 125.677 118.913 123.216 118.913 123.216C121.989 118.295 118.913 113.682 113.377 113.374C109.072 113.067 104.151 115.527 104.151 124.139Z" fill="white"/>
<path d="M80.7753 124.139C80.7753 124.139 77.3921 127.214 71.8561 126.292C67.2427 125.677 66.0125 123.216 66.0125 123.216C62.9369 118.295 66.0125 113.682 71.5486 113.374C75.5468 113.067 80.4677 115.527 80.7753 124.139Z" fill="white"/>
<path d="M110.101 118.171C110.716 116.018 112.869 114.173 115.329 114.788C115.022 115.095 114.714 115.403 114.714 116.018C114.407 117.248 115.329 118.478 116.559 118.786C117.482 118.786 118.097 118.786 118.712 118.171C118.712 118.786 118.712 119.401 118.712 120.016C118.097 122.169 115.944 124.014 113.484 123.399C111.023 122.784 109.486 120.324 110.101 118.171Z" fill="#462200"/>
<path d="M74.2107 114.787C74.8258 114.787 75.4409 114.787 76.056 114.787C75.7485 115.095 75.4409 115.402 75.4409 116.018C75.1334 117.248 76.056 118.478 77.2863 118.786C78.2089 118.786 79.1316 118.786 79.4392 118.17C80.0543 120.323 78.5165 122.784 76.056 123.091C73.5956 123.399 71.1351 122.169 70.8276 119.708C70.2125 117.555 71.4427 115.402 74.2107 114.787Z" fill="#462200"/>
<path d="M59.1677 70.0064C46.558 76.7727 32.7181 82.6162 37.0238 90.9202C41.3296 99.2242 61.3206 97.0713 73.9302 90.3051C86.5399 83.5389 92.9986 71.5442 88.3853 63.2402C83.772 54.9362 71.7774 63.2402 59.1677 70.0064Z" fill="#892708"/>
<path d="M107.761 66.9318C95.1511 60.7808 88.3849 55.8599 84.3867 64.4714C80.3885 72.7754 87.1547 84.7699 100.072 90.921C112.989 97.0721 133.288 101.685 137.286 93.3814C141.284 84.7699 120.371 73.0829 107.761 66.9318Z" fill="#892708"/>
</g>
<defs>
<clipPath id="clip0_4038_51072">
<rect width="1024" height="280" fill="white"/>
</clipPath>
</defs>
</svg>
