<svg width="60" height="60" viewBox="0 0 60 60" fill="none" xmlns="http://www.w3.org/2000/svg">
<path d="M59.7959 27.2087C59.7959 35.805 59.2556 48.9211 30.2612 48.9211C0.456445 49.0097 0.906668 35.805 0.906668 27.2087C0.906668 18.6123 14.0532 11.6998 30.3513 11.6998C46.6494 11.6998 59.7959 18.701 59.7959 27.2087Z" fill="#FAB62F"/>
<path d="M39.7159 34.2982C35.6639 36.2479 30.5314 36.6024 26.0291 35.5389C22.7875 35.0958 19.5459 34.2982 17.1147 32.2599C14.5934 30.133 14.1432 27.1198 16.2143 24.4612C19.726 20.0301 26.1192 17.8145 31.7019 17.46C36.0241 17.1056 42.6874 17.3714 45.3887 21.448C48.4502 26.0564 44.038 32.2599 39.7159 34.2982Z" fill="#DF7F35"/>
<path d="M21.707 27.5631C21.707 27.5631 23.8681 30.4876 29.9911 30.6648C36.2042 30.8421 38.7254 27.7403 38.7254 27.7403C37.0146 27.0313 34.4033 26.2337 31.0716 26.1451C27.0196 25.9679 23.688 26.8541 21.707 27.5631Z" fill="white"/>
<path d="M35.844 11.3453C25.0386 10.459 8.74053 10.5477 2.16726 20.8278C0.816593 22.9547 -0.0838536 25.5248 0.00619112 28.0948C0.0962358 29.7786 -0.263943 33.3235 0.996683 34.5642C2.70753 36.1594 4.59847 33.8553 6.39936 35.5391C7.75003 36.8684 7.4799 39.2612 9.19075 40.3247C11.5319 41.7426 14.2333 38.9953 16.0341 37.7546C18.3753 36.1594 21.0766 34.9187 24.0481 35.3618C27.1096 35.8049 29.6309 38.1977 32.7825 38.375C36.0241 38.5522 37.2847 35.6277 40.1661 35.2732C42.8675 34.9187 43.858 37.7546 46.019 38.8181C49.3507 40.3247 51.5117 38.0205 53.4927 35.8049C55.2036 33.8553 57.9049 34.1211 59.1655 31.7283C60.156 29.6014 64.5682 13.8267 35.844 11.3453ZM41.6969 25.9679C36.4743 29.3355 29.901 31.4625 23.9581 28.8038C22.3373 28.0948 20.1762 26.8541 19.2758 25.2589C17.9251 22.7775 19.5459 22.1571 21.707 23.0434C25.3988 24.5499 24.5884 23.5751 27.92 22.1571C30.8015 20.9164 30.0811 23.6637 32.4223 23.841C34.2232 23.9296 35.6639 21.5368 37.4648 21.1823C40.6163 20.4733 42.9575 23.0434 41.6969 25.9679Z" fill="#FF5566"/>
<path d="M6.75953 29.9559C7.45575 29.9559 8.02015 29.4004 8.02015 28.7152C8.02015 28.03 7.45575 27.4745 6.75953 27.4745C6.0633 27.4745 5.4989 28.03 5.4989 28.7152C5.4989 29.4004 6.0633 29.9559 6.75953 29.9559Z" fill="#FFC533"/>
<path d="M13.2427 26.7647C13.939 26.7647 14.5034 26.2093 14.5034 25.524C14.5034 24.8388 13.939 24.2833 13.2427 24.2833C12.5465 24.2833 11.9821 24.8388 11.9821 25.524C11.9821 26.2093 12.5465 26.7647 13.2427 26.7647Z" fill="#FF80C8"/>
<path d="M10.0912 25.347L5.679 24.0177C5.22877 23.8404 4.95864 23.3973 5.04869 22.8656C5.22878 22.4225 5.679 22.1566 6.21927 22.2453L10.6315 23.5746C11.0817 23.7518 11.3518 24.1949 11.2618 24.7267C11.0817 25.1698 10.6315 25.4356 10.0912 25.347Z" fill="#00CAF2"/>
<path d="M11.8921 29.1575L16.3943 28.1827C16.8445 28.0941 17.3848 28.3599 17.4748 28.8917C17.5649 29.3348 17.2947 29.8665 16.7545 29.9551L12.2522 30.93C11.802 31.0186 11.2617 30.7527 11.1717 30.221C11.0817 29.7779 11.3518 29.2462 11.8921 29.1575Z" fill="#00E339"/>
<path d="M38.7253 33.4117C39.4216 33.4117 39.986 32.8562 39.986 32.171C39.986 31.4858 39.4216 30.9303 38.7253 30.9303C38.0291 30.9303 37.4647 31.4858 37.4647 32.171C37.4647 32.8562 38.0291 33.4117 38.7253 33.4117Z" fill="#FFC533"/>
<path d="M45.2986 30.1334C45.9948 30.1334 46.5592 29.5779 46.5592 28.8927C46.5592 28.2075 45.9948 27.652 45.2986 27.652C44.6024 27.652 44.038 28.2075 44.038 28.8927C44.038 29.5779 44.6024 30.1334 45.2986 30.1334Z" fill="#FF80C8"/>
<path d="M55.5638 30.6649L51.1516 29.3356C50.7013 29.1583 50.4312 28.7152 50.5213 28.1835C50.7013 27.7404 51.1516 27.4745 51.6918 27.5631L56.104 28.8925C56.5542 29.0697 56.8244 29.5128 56.7343 30.0445C56.5542 30.4876 56.014 30.7535 55.5638 30.6649Z" fill="#00CAF2"/>
<path d="M43.9479 32.5262L48.4501 31.5513C48.9004 31.4627 49.4406 31.7286 49.5307 32.2603C49.6207 32.7034 49.3506 33.2352 48.8103 33.3238L44.3081 34.2986C43.8579 34.3872 43.3176 34.1214 43.2275 33.5896C43.1375 33.1465 43.4076 32.7034 43.9479 32.5262Z" fill="#00E339"/>
<path d="M25.9391 33.0584C26.6353 33.0584 27.1997 32.503 27.1997 31.8177C27.1997 31.1325 26.6353 30.577 25.9391 30.577C25.2429 30.577 24.6785 31.1325 24.6785 31.8177C24.6785 32.503 25.2429 33.0584 25.9391 33.0584Z" fill="#FFC533"/>
<path d="M14.3233 36.0714C15.0195 36.0714 15.5839 35.5159 15.5839 34.8307C15.5839 34.1455 15.0195 33.59 14.3233 33.59C13.6271 33.59 13.0627 34.1455 13.0627 34.8307C13.0627 35.5159 13.6271 36.0714 14.3233 36.0714Z" fill="#FF80C8"/>
<path d="M29.811 32.7923L34.3132 33.324C34.8535 33.4126 35.2137 33.8557 35.1237 34.2988C35.0336 34.8306 34.5834 35.1851 34.1332 35.0964L29.6309 34.5647C29.0907 34.4761 28.7305 34.033 28.8205 33.5899C28.8205 33.0581 29.2707 32.7036 29.811 32.7923Z" fill="#00CAF2"/>
<path d="M21.2567 31.1086L17.0246 32.7924C16.5744 32.9696 16.0341 32.7924 15.854 32.2606C15.6739 31.8175 15.854 31.2858 16.3943 31.1086L20.6264 29.4247C21.0766 29.2475 21.6169 29.4247 21.7969 29.9565C21.887 30.3996 21.7069 30.9313 21.2567 31.1086Z" fill="#926DE3"/>
<path d="M38.0051 17.3712C38.7013 17.3712 39.2657 16.8157 39.2657 16.1305C39.2657 15.4453 38.7013 14.8898 38.0051 14.8898C37.3088 14.8898 36.7444 15.4453 36.7444 16.1305C36.7444 16.8157 37.3088 17.3712 38.0051 17.3712Z" fill="#FFC533"/>
<path d="M26.3893 20.385C27.0855 20.385 27.6499 19.8295 27.6499 19.1443C27.6499 18.459 27.0855 17.9036 26.3893 17.9036C25.6931 17.9036 25.1287 18.459 25.1287 19.1443C25.1287 19.8295 25.6931 20.385 26.3893 20.385Z" fill="#FF80C8"/>
<path d="M41.877 17.106L46.3792 17.6377C46.9195 17.7263 47.2797 18.1694 47.1896 18.6126C47.0996 19.1443 46.6494 19.4988 46.1991 19.4102L41.6969 18.8784C41.1566 18.7898 40.7965 18.3467 40.8865 17.9036C40.8865 17.3718 41.3367 17.0174 41.877 17.106Z" fill="#00CAF2"/>
<path d="M33.2326 15.4218L29.0005 17.1942C28.5503 17.3715 28.01 17.1942 27.83 16.6625C27.6499 16.2194 27.83 15.6877 28.3702 15.5104L32.6023 13.8266C33.0525 13.6494 33.5928 13.8266 33.7729 14.3583C33.953 14.7128 33.7729 15.2446 33.2326 15.4218Z" fill="#926DE3"/>
<path d="M18.1951 19.1443C18.8914 19.1443 19.4558 18.5888 19.4558 17.9036C19.4558 17.2183 18.8914 16.6628 18.1951 16.6628C17.4989 16.6628 16.9345 17.2183 16.9345 17.9036C16.9345 18.5888 17.4989 19.1443 18.1951 19.1443Z" fill="#FFC533"/>
<path d="M15.4037 22.4236C16.0999 22.4236 16.6643 21.8681 16.6643 21.1828C16.6643 20.4976 16.0999 19.9421 15.4037 19.9421C14.7075 19.9421 14.1431 20.4976 14.1431 21.1828C14.1431 21.8681 14.7075 22.4236 15.4037 22.4236Z" fill="#80AAFF"/>
<path d="M19.3657 14.0927L23.8679 14.8903C24.4082 14.9789 24.6783 15.4221 24.5883 15.9538C24.4982 16.4855 24.048 16.7514 23.5077 16.6628L19.0055 15.8652C18.4652 15.7765 18.1951 15.3334 18.2852 14.8017C18.3752 14.27 18.8254 14.0041 19.3657 14.0927Z" fill="#00CAF2"/>
<path d="M13.0626 18.081L8.74045 19.5876C8.20018 19.6762 7.65991 19.499 7.56987 18.9672C7.38978 18.5241 7.65991 17.9924 8.11014 17.8151L12.4323 16.3972C12.8825 16.2199 13.4228 16.4858 13.6029 16.9289C13.7829 17.4607 13.5128 17.9038 13.0626 18.081Z" fill="#00E339"/>
<path d="M45.2086 22.4223C45.9048 22.4223 46.4692 21.8669 46.4692 21.1816C46.4692 20.4964 45.9048 19.9409 45.2086 19.9409C44.5124 19.9409 43.948 20.4964 43.948 21.1816C43.948 21.8669 44.5124 22.4223 45.2086 22.4223Z" fill="#FFC533"/>
<path d="M48 25.6125C48.6963 25.6125 49.2607 25.057 49.2607 24.3718C49.2607 23.6866 48.6963 23.1311 48 23.1311C47.3038 23.1311 46.7394 23.6866 46.7394 24.3718C46.7394 25.057 47.3038 25.6125 48 25.6125Z" fill="#80AAFF"/>
<path d="M36.0241 17.6368L31.5218 18.4344C31.0716 18.5231 30.7114 18.9662 30.8015 19.4979C30.8915 20.0296 31.3417 20.2955 31.882 20.2069L36.3842 19.4093C36.9245 19.3207 37.1946 18.8775 37.1046 18.3458C37.0145 17.9027 36.5643 17.5482 36.0241 17.6368Z" fill="#00CAF2"/>
<path d="M50.4313 21.3591L54.7534 22.777C55.2036 22.9543 55.7439 22.6884 55.924 22.2453C56.1041 21.8022 55.834 21.2705 55.3837 21.0932L51.0616 19.6753C50.6114 19.498 50.0711 19.7639 49.891 20.207C49.7109 20.6501 49.9811 21.1818 50.4313 21.3591Z" fill="#00E339"/>
</svg>
